:SAMPLES-PER-SECOND 30
:FULLY-SPECIFIED
:DEGREES
511
root  -0.759808 39.3311 -3.18268 -170.797 -79.5523 179.03
RightUpLeg  4.81769 -6.30578 -6.74162
RightLeg  22.0411 15.4899 6.72283
RightFoot  -4.2006 -0.936996 14.7158
RightToes  -3.0268e-009 0 -3.6325e-017
Spine  17.513 1.72 1.71243
Spine1  -11.2033 1.16505 2.38878
HEad  -14.8436 -9.35092 -5.89654
LeftShoulder1  0.127218 2.43612 -4.1724
LeftArm  -49.1905 -28.2736 -18.2784
LeftForeArm  158.649 -70.6867 -150.66
LeftHand  -0.0822403 4.46051 7.51361
RightShoulder  0.17255 -2.4348 9.31547
RightArm  -17.2867 14.4571 14.1474
RightForeArm  121.082 77.1125 126.519
RightHand  -0.718965 7.64071 -6.8078
LeftUpLeg  -56.3311 9.67375 -2.12395
LeftLeg  67.1833 1.66676 5.14948
LeftFoot  -11.8491 0.0614225 -1.47698
LeftToes  2.52475e-009 -1.26109e-010 3.16044e-011
512
root  -3.30016 40.8392 -3.14624 176.28 -77.5389 -170.133
RightUpLeg  6.1087 -10.6128 -8.1707
RightLeg  25.7266 13.2565 6.22227
RightFoot  11.6278 -3.20627 16.279
RightToes  -3.0268e-009 0 -3.6325e-017
Spine  15.6684 2.55704 5.30454
Spine1  -6.95165 2.78918 -1.34757
HEad  -9.84461 -5.50383 -6.47335
LeftShoulder1  0.196075 2.42488 -9.7539
LeftArm  -31.9759 -22.4676 -20.53
LeftForeArm  144.343 -76.6779 -133.93
LeftHand  -0.0267365 5.17431 4.61805
RightShoulder  0.158825 -2.76019 14.2987
RightArm  2.25435 10.1402 19.007
RightForeArm  63.1214 78.2558 63.6025
RightHand  -0.5593 5.34464 -6.40724
LeftUpLeg  -52.4987 12.5502 1.97341
LeftLeg  55.918 1.90804 3.65872
LeftFoot  -4.03484 0.278659 -3.61188
LeftToes  2.52475e-009 -1.26109e-010 3.16044e-011
513
root  -5.68948 41.9855 -3.09158 171.17 -74.5426 -167.419
RightUpLeg  3.04945 -10.3522 -9.47841
RightLeg  39.5598 0.96564 0.634012
RightFoot  9.5151 -1.83515 10.2966
RightToes  -3.0268e-009 0 -3.6325e-017
Spine  16.9245 3.2713 6.4747
Spine1  -5.5674 4.01945 -2.97931
HEad  -8.77913 -1.91307 -6.74282
LeftShoulder1  0.300689 2.15019 -16.7066
LeftArm  -18.5367 -10.2086 -21.1315
LeftForeArm  114.118 -80.5925 -98.2169
LeftHand  -0.0458973 4.346 2.61509
RightShoulder  0.203897 -2.68349 19.5969
RightArm  17.3662 4.93579 23.7991
RightForeArm  24.4406 62.9716 20.2829
RightHand  -0.56982 7.71435 -5.37141
LeftUpLeg  -46.1641 15.1997 5.26942
LeftLeg  41.6937 0.951501 1.30558
LeftFoot  5.26196 1.13381 -7.93881
LeftToes  2.52475e-009 -1.26109e-010 3.16044e-011
514
root  -8.18893 42.6455 -2.94676 170.866 -72.5036 -168.828
RightUpLeg  -2.43324 -10.33 -11.729
RightLeg  55.5845 -0.262412 -0.346901
RightFoot  8.8545 -0.74751 4.54458
RightToes  -3.0268e-009 0 -3.6325e-017
Spine  16.6308 2.68235 5.89577
Spine1  -1.51415 3.691 -3.86778
HEad  -10.8323 2.70436 -5.73036
LeftShoulder1  -0.18457 4.11439 -24.0882
LeftArm  -11.8592 3.42004 -18.9491
LeftForeArm  84.2704 -79.9153 -66.8439
LeftHand  -0.0347534 4.89113 2.51274
RightShoulder  -0.144385 -3.94179 24.0565
RightArm  27.3724 2.00713 28.8647
RightForeArm  17.4907 43.5355 8.99822
RightHand  -0.636458 7.90741 -5.86729
LeftUpLeg  -39.2681 15.2116 7.25135
LeftLeg  27.6856 -1.42547 -0.399576
LeftFoot  11.9002 2.26601 -11.4956
LeftToes  2.52475e-009 -1.26109e-010 3.16044e-011
515
root  -10.7691 42.7003 -2.7737 170.85 -71.1714 -169.616
RightUpLeg  -8.62243 -9.75116 -12.8596
RightLeg  67.7185 2.51233 5.98882
RightFoot  7.46942 -0.475222 3.21137
RightToes  -3.0268e-009 0 -3.6325e-017
Spine  15.7001 2.3164 5.68242
Spine1  1.59208 3.67927 -5.51278
HEad  -12.0521 5.93067 -4.19292
LeftShoulder1  -0.802574 5.78199 -29.1345
LeftArm  -8.14781 16.3927 -18.5459
LeftForeArm  66.5246 -78.1081 -51.781
LeftHand  -0.0388906 4.70259 2.48072
RightShoulder  -0.706354 -5.53182 28.2263
RightArm  31.4523 -6.11459 28.0722
RightForeArm  16.577 32.8534 6.22673
RightHand  -0.423985 6.47947 -4.47447
LeftUpLeg  -33.5433 14.2774 8.55462
LeftLeg  16.8841 -4.01578 -1.30643
LeftFoot  17.1643 3.23091 -12.9808
LeftToes  2.52475e-009 -1.26109e-010 3.16044e-011
